{
  "accessors": [
    {
      "bufferView": 2,
      "componentType": 5126,
      "count": 25179,
      "max": [
        15.696356773376465,
        0.7577500343322754,
        14.394716262817383
      ],
      "min": [
        -15.703169822692871,
        -1.5116941928863525,
        -1.1323237419128418
      ],
      "type": "VEC3"
    },
    {
      "bufferView": 2,
      "byteOffset": 302148,
      "componentType": 5126,
      "count": 25179,
      "max": [
        1.0,
        0.9999997019767761,
        1.0
      ],
      "min": [
        -1.0,
        -0.9999997019767761,
        -1.0
      ],
      "type": "VEC3"
    },
    {
      "bufferView": 3,
      "componentType": 5126,
      "count": 25179,
      "max": [
        0.9999901652336121,
        0.9676563143730164,
        0.9999997019767761,
        1.0
      ],
      "min": [
        -0.9999901652336121,
        -0.9999375343322754,
        -0.9995060563087463,
        -1.0
      ],
      "type": "VEC4"
    },
    {
      "bufferView": 1,
      "componentType": 5126,
      "count": 25179,
      "max": [
        0.9857433438301086,
        0.9462589025497437
      ],
      "min": [
        0.029996752738952637,
        0.32153886556625366
      ],
      "type": "VEC2"
    },
    {
      "bufferView": 1,
      "byteOffset": 201432,
      "componentType": 5126,
      "count": 25179,
      "max": [
        0.9857433438301086,
        0.9462589025497437
      ],
      "min": [
        0.029996752738952637,
        0.32153886556625366
      ],
      "type": "VEC2"
    },
    {
      "bufferView": 0,
      "componentType": 5125,
      "count": 63216,
      "type": "SCALAR"
    },
    {
      "bufferView": 2,
      "byteOffset": 604296,
      "componentType": 5126,
      "count": 519,
      "max": [
        1.0326144695281982,
        0.9994386434555054,
        1.060981273651123
      ],
      "min": [
        -0.9902380704879761,
        -0.9998006820678711,
        -1.0737614631652832
      ],
      "type": "VEC3"
    },
    {
      "bufferView": 2,
      "byteOffset": 610524,
      "componentType": 5126,
      "count": 519,
      "max": [
        0.9998027086257935,
        1.0,
        0.9994872212409973
      ],
      "min": [
        -0.9998027682304382,
        -1.0,
        -0.9994871020317078
      ],
      "type": "VEC3"
    },
    {
      "bufferView": 3,
      "byteOffset": 402864,
      "componentType": 5126,
      "count": 519,
      "max": [
        0.9999985694885254,
        0.9310481548309326,
        0.9907718896865845,
        1.0
      ],
      "min": [
        -0.9938004016876221,
        -0.9998965859413147,
        -0.9987679123878479,
        -1.0
      ],
      "type": "VEC4"
    },
    {
      "bufferView": 1,
      "byteOffset": 402864,
      "componentType": 5126,
      "count": 519,
      "max": [
        0.9656394720077515,
        0.9462589025497437
      ],
      "min": [
        0.029996752738952637,
        0.32153886556625366
      ],
      "type": "VEC2"
    },
    {
      "bufferView": 1,
      "byteOffset": 407016,
      "componentType": 5126,
      "count": 519,
      "max": [
        0.9656394720077515,
        0.9462589025497437
      ],
      "min": [
        0.029996752738952637,
        0.32153886556625366
      ],
      "type": "VEC2"
    },
    {
      "bufferView": 0,
      "byteOffset": 252864,
      "componentType": 5125,
      "count": 2736,
      "type": "SCALAR"
    }
  ],
  "asset": {
    "extras": {
      "author": "Alex Martire (https://sketchfab.com/alexmartire)",
      "license": "CC-BY-NC-4.0 (http://creativecommons.org/licenses/by-nc/4.0/)",
      "source": "https://sketchfab.com/3d-models/jangada-de-bambu-bamboo-raft-3400ef8db55a4e91ac0c9c53f4329e26",
      "title": "Jangada de Bambu (Bamboo raft)"
    },
    "generator": "Sketchfab-12.66.0",
    "version": "2.0"
  },
  "bufferViews": [
    {
      "buffer": 0,
      "byteLength": 263808,
      "name": "floatBufferViews",
      "target": 34963
    },
    {
      "buffer": 0,
      "byteLength": 411168,
      "byteOffset": 263808,
      "byteStride": 8,
      "name": "floatBufferViews",
      "target": 34962
    },
    {
      "buffer": 0,
      "byteLength": 616752,
      "byteOffset": 674976,
      "byteStride": 12,
      "name": "floatBufferViews",
      "target": 34962
    },
    {
      "buffer": 0,
      "byteLength": 411168,
      "byteOffset": 1291728,
      "byteStride": 16,
      "name": "floatBufferViews",
      "target": 34962
    }
  ],
  "buffers": [
    {
      "byteLength": 1702896,
      "uri": "scene.bin"
    }
  ],
  "images": [
    {
      "uri": "textures/Bambu_baseColor.png"
    },
    {
      "uri": "textures/Bambu_metallicRoughness.png"
    },
    {
      "uri": "textures/Bambu_normal.png"
    }
  ],
  "materials": [
    {
      "alphaMode": "BLEND",
      "doubleSided": true,
      "name": "Bambu",
      "normalTexture": {
        "index": 2
      },
      "occlusionTexture": {
        "index": 1
      },
      "pbrMetallicRoughness": {
        "baseColorTexture": {
          "index": 0
        },
        "metallicFactor": 0.0,
        "metallicRoughnessTexture": {
          "index": 1
        },
        "roughnessFactor": 0.044397865853658534
      }
    }
  ],
  "meshes": [
    {
      "name": "JangadaBambu_Bambu_0",
      "primitives": [
        {
          "attributes": {
            "NORMAL": 1,
            "POSITION": 0,
            "TANGENT": 2,
            "TEXCOORD_0": 3,
            "TEXCOORD_1": 4
          },
          "indices": 5,
          "material": 0,
          "mode": 4
        }
      ]
    },
    {
      "name": "Remo_Bambu_0",
      "primitives": [
        {
          "attributes": {
            "NORMAL": 7,
            "POSITION": 6,
            "TANGENT": 8,
            "TEXCOORD_0": 9,
            "TEXCOORD_1": 10
          },
          "indices": 11,
          "material": 0,
          "mode": 4
        }
      ]
    }
  ],
  "nodes": [
    {
      "children": [
        1
      ],
      "matrix": [
        1.0,
        0.0,
        0.0,
        0.0,
        0.0,
        2.220446049250313e-16,
        -1.0,
        0.0,
        0.0,
        1.0,
        2.220446049250313e-16,
        0.0,
        0.0,
        0.0,
        0.0,
        1.0
      ],
      "name": "Sketchfab_model"
    },
    {
      "children": [
        2
      ],
      "matrix": [
        1.0,
        0.0,
        0.0,
        0.0,
        0.0,
        0.0,
        1.0,
        0.0,
        0.0,
        -1.0,
        0.0,
        0.0,
        0.0,
        0.0,
        0.0,
        1.0
      ],
      "name": "cd490eb30b9d4a74ba525e79aa34c63f.fbx"
    },
    {
      "children": [
        3,
        5
      ],
      "name": "RootNode"
    },
    {
      "children": [
        4
      ],
      "name": "JangadaBambu"
    },
    {
      "mesh": 0,
      "name": "JangadaBambu_Bambu_0"
    },
    {
      "children": [
        6
      ],
      "matrix": [
        3.0390576529924426e-15,
        -0.21385467052459717,
        -1.1871318957001729e-17,
        0.0,
        -13.896640451801368,
        -1.948660148123031e-13,
        3.723593586565746,
        0.0,
        -0.055349661615889,
        -7.716357322051124e-16,
        -0.20656774933224833,
        0.0,
        5.714522838592529,
        0.9845401048660278,
        6.627693176269531,
        1.0
      ],
      "name": "Remo"
    },
    {
      "mesh": 1,
      "name": "Remo_Bambu_0"
    }
  ],
  "samplers": [
    {
      "magFilter": 9729,
      "minFilter": 9987,
      "wrapS": 10497,
      "wrapT": 10497
    }
  ],
  "scene": 0,
  "scenes": [
    {
      "name": "Sketchfab_Scene",
      "nodes": [
        0
      ]
    }
  ],
  "textures": [
    {
      "sampler": 0,
      "source": 0
    },
    {
      "sampler": 0,
      "source": 1
    },
    {
      "sampler": 0,
      "source": 2
    }
  ]
}
