{
  "accessors": [
    {
      "bufferView": 2,
      "componentType": 5126,
      "count": 6144,
      "max": [
        -4.3397393226623535,
        27.66668128967285,
        10.320003509521484
      ],
      "min": [
        -7.6602630615234375,
        -1.000000238418579,
        -10.320009231567383
      ],
      "type": "VEC3"
    },
    {
      "bufferView": 2,
      "byteOffset": 73728,
      "componentType": 5126,
      "count": 6144,
      "max": [
        0.9996979236602783,
        1.0,
        1.0
      ],
      "min": [
        -0.9996979236602783,
        -1.0,
        -1.0
      ],
      "type": "VEC3"
    },
    {
      "bufferView": 1,
      "componentType": 5126,
      "count": 6144,
      "max": [
        1.0000001192092896,
        1.0000001192092896
      ],
      "min": [
        0.0,
        0.010000006295740604
      ],
      "type": "VEC2"
    },
    {
      "bufferView": 0,
      "componentType": 5125,
      "count": 9216,
      "type": "SCALAR"
    },
    {
      "bufferView": 2,
      "byteOffset": 147456,
      "componentType": 5126,
      "count": 4342,
      "max": [
        -1.9502408504486084,
        24.637481689453125,
        10.319999694824219
      ],
      "min": [
        -6.617368221282959,
        4.595796585083008,
        -10.32000732421875
      ],
      "type": "VEC3"
    },
    {
      "bufferView": 2,
      "byteOffset": 199560,
      "componentType": 5126,
      "count": 4342,
      "max": [
        0.9999641180038452,
        0.999698281288147,
        1.0
      ],
      "min": [
        -0.9999604225158691,
        -0.993967592716217,
        -1.0
      ],
      "type": "VEC3"
    },
    {
      "bufferView": 1,
      "byteOffset": 49152,
      "componentType": 5126,
      "count": 4342,
      "max": [
        1.0000001192092896,
        1.0000001192092896
      ],
      "min": [
        0.0,
        0.0
      ],
      "type": "VEC2"
    },
    {
      "bufferView": 0,
      "byteOffset": 36864,
      "componentType": 5125,
      "count": 6528,
      "type": "SCALAR"
    },
    {
      "bufferView": 2,
      "byteOffset": 251664,
      "componentType": 5126,
      "count": 55424,
      "max": [
        16.307655334472656,
        0.9921874403953552,
        10.07221794128418
      ],
      "min": [
        -17.025693893432617,
        -2.967813491821289,
        -10.554452896118164
      ],
      "type": "VEC3"
    },
    {
      "bufferView": 2,
      "byteOffset": 916752,
      "componentType": 5126,
      "count": 55424,
      "max": [
        1.0,
        0.9951848983764648,
        0.9951859712600708
      ],
      "min": [
        -1.0,
        -0.9951852560043335,
        -0.9951859712600708
      ],
      "type": "VEC3"
    },
    {
      "bufferView": 1,
      "byteOffset": 83888,
      "componentType": 5126,
      "count": 55424,
      "max": [
        1.0000001192092896,
        1.0000001192092896
      ],
      "min": [
        0.0,
        0.010000006295740604
      ],
      "type": "VEC2"
    },
    {
      "bufferView": 0,
      "byteOffset": 62976,
      "componentType": 5125,
      "count": 83136,
      "type": "SCALAR"
    },
    {
      "bufferView": 2,
      "byteOffset": 1581840,
      "componentType": 5126,
      "count": 61304,
      "max": [
        14.903489112854004,
        1.028856873512268,
        10.10888385772705
      ],
      "min": [
        -15.689350128173828,
        -3.0044779777526855,
        -10.591119766235352
      ],
      "type": "VEC3"
    },
    {
      "bufferView": 2,
      "byteOffset": 2317488,
      "componentType": 5126,
      "count": 61304,
      "max": [
        0.9995366334915161,
        0.9951849579811096,
        0.9951856732368469
      ],
      "min": [
        -0.9993575215339661,
        -0.9951850771903992,
        -0.9951856732368469
      ],
      "type": "VEC3"
    },
    {
      "bufferView": 1,
      "byteOffset": 527280,
      "componentType": 5126,
      "count": 61304,
      "max": [
        1.0000001192092896,
        0.9787502884864807
      ],
      "min": [
        0.0,
        0.5201874375343323
      ],
      "type": "VEC2"
    },
    {
      "bufferView": 0,
      "byteOffset": 395520,
      "componentType": 5125,
      "count": 91968,
      "type": "SCALAR"
    }
  ],
  "asset": {
    "extras": {
      "author": "Sinci1 (https://sketchfab.com/sinci1772)",
      "license": "CC-BY-4.0 (http://creativecommons.org/licenses/by/4.0/)",
      "source": "https://sketchfab.com/3d-models/raft-07b4974fd6ca434fbbec3144ad67d1f8",
      "title": "Raft"
    },
    "generator": "Sketchfab-12.65.0",
    "version": "2.0"
  },
  "bufferViews": [
    {
      "buffer": 0,
      "byteLength": 763392,
      "name": "floatBufferViews",
      "target": 34963
    },
    {
      "buffer": 0,
      "byteLength": 1017712,
      "byteOffset": 763392,
      "byteStride": 8,
      "name": "floatBufferViews",
      "target": 34962
    },
    {
      "buffer": 0,
      "byteLength": 3053136,
      "byteOffset": 1781104,
      "byteStride": 12,
      "name": "floatBufferViews",
      "target": 34962
    }
  ],
  "buffers": [
    {
      "byteLength": 4834240,
      "uri": "scene.bin"
    }
  ],
  "materials": [
    {
      "doubleSided": true,
      "name": "RaftShip_HelmWoodMaterial",
      "pbrMetallicRoughness": {
        "baseColorFactor": [
          0.8,
          0.307135,
          0.093986,
          1.0
        ],
        "metallicFactor": 0.0,
        "roughnessFactor": 0.5
      }
    },
    {
      "doubleSided": true,
      "name": "RaftShip_FlagMaterial",
      "pbrMetallicRoughness": {
        "baseColorFactor": [
          0.8,
          0.8,
          0.8,
          1.0
        ],
        "metallicFactor": 0.0,
        "roughnessFactor": 0.5
      }
    },
    {
      "doubleSided": true,
      "name": "RaftShip_WoodMaterial",
      "pbrMetallicRoughness": {
        "baseColorFactor": [
          0.28101,
          0.082079,
          0.0154147,
          1.0
        ],
        "metallicFactor": 0.0,
        "roughnessFactor": 0.5
      }
    },
    {
      "doubleSided": true,
      "name": "RaftShip_RopeMaterial",
      "pbrMetallicRoughness": {
        "baseColorFactor": [
          0.8,
          0.383445,
          0.123361,
          1.0
        ],
        "metallicFactor": 0.0,
        "roughnessFactor": 0.5
      }
    }
  ],
  "meshes": [
    {
      "name": "Object_0",
      "primitives": [
        {
          "attributes": {
            "NORMAL": 1,
            "POSITION": 0,
            "TEXCOORD_0": 2
          },
          "indices": 3,
          "material": 0,
          "mode": 4
        }
      ]
    },
    {
      "name": "Object_1",
      "primitives": [
        {
          "attributes": {
            "NORMAL": 5,
            "POSITION": 4,
            "TEXCOORD_0": 6
          },
          "indices": 7,
          "material": 1,
          "mode": 4
        }
      ]
    },
    {
      "name": "Object_2",
      "primitives": [
        {
          "attributes": {
            "NORMAL": 9,
            "POSITION": 8,
            "TEXCOORD_0": 10
          },
          "indices": 11,
          "material": 2,
          "mode": 4
        }
      ]
    },
    {
      "name": "Object_3",
      "primitives": [
        {
          "attributes": {
            "NORMAL": 13,
            "POSITION": 12,
            "TEXCOORD_0": 14
          },
          "indices": 15,
          "material": 3,
          "mode": 4
        }
      ]
    }
  ],
  "nodes": [
    {
      "children": [
        1
      ],
      "matrix": [
        1.0,
        0.0,
        0.0,
        0.0,
        0.0,
        2.220446049250313e-16,
        -1.0,
        0.0,
        0.0,
        1.0,
        2.220446049250313e-16,
        0.0,
        0.0,
        0.0,
        0.0,
        1.0
      ],
      "name": "Sketchfab_model"
    },
    {
      "children": [
        2
      ],
      "name": "root"
    },
    {
      "children": [
        3
      ],
      "matrix": [
        1.0,
        0.0,
        0.0,
        0.0,
        0.0,
        2.220446049250313e-16,
        1.0,
        0.0,
        0.0,
        -1.0,
        2.220446049250313e-16,
        0.0,
        0.0,
        0.0,
        0.0,
        1.0
      ],
      "name": "GLTF_SceneRootNode"
    },
    {
      "children": [
        4,
        5,
        6,
        7
      ],
      "matrix": [
        0.14999999105930328,
        0.0,
        0.0,
        0.0,
        0.0,
        0.14999999105930328,
        0.0,
        0.0,
        0.0,
        0.0,
        0.14999999105930328,
        0.0,
        0.05385219678282738,
        0.14817170798778534,
        0.03616743162274361,
        1.0
      ],
      "name": "Raft_0"
    },
    {
      "mesh": 0,
      "name": "Object_4"
    },
    {
      "mesh": 1,
      "name": "Object_5"
    },
    {
      "mesh": 2,
      "name": "Object_6"
    },
    {
      "mesh": 3,
      "name": "Object_7"
    }
  ],
  "scene": 0,
  "scenes": [
    {
      "name": "Sketchfab_Scene",
      "nodes": [
        0
      ]
    }
  ]
}
