{
  "accessors": [
    {
      "bufferView": 2,
      "componentType": 5126,
      "count": 130,
      "max": [
        88.8516616821289,
        271.13336181640625,
        138.224365234375
      ],
      "min": [
        26.202054977416992,
        -1.7026350498199463,
        15.467601776123047
      ],
      "type": "VEC3"
    },
    {
      "bufferView": 0,
      "componentType": 5125,
      "count": 520,
      "type": "SCALAR"
    },
    {
      "bufferView": 2,
      "byteOffset": 1560,
      "componentType": 5126,
      "count": 156,
      "max": [
        88.8516616821289,
        271.13336181640625,
        138.224365234375
      ],
      "min": [
        26.202054977416992,
        -1.7026350498199463,
        15.467601776123047
      ],
      "type": "VEC3"
    },
    {
      "bufferView": 2,
      "byteOffset": 3432,
      "componentType": 5126,
      "count": 156,
      "max": [
        0.9972283244132996,
        0.8248302936553955,
        0.9707242250442505
      ],
      "min": [
        -0.9972283244132996,
        -0.8241214156150818,
        -0.9707242250442505
      ],
      "type": "VEC3"
    },
    {
      "bufferView": 0,
      "byteOffset": 2080,
      "componentType": 5125,
      "count": 780,
      "type": "SCALAR"
    },
    {
      "bufferView": 2,
      "byteOffset": 5304,
      "componentType": 5126,
      "count": 208,
      "max": [
        88.8516616821289,
        271.13336181640625,
        138.224365234375
      ],
      "min": [
        26.202054977416992,
        -1.7026350498199463,
        15.467601776123047
      ],
      "type": "VEC3"
    },
    {
      "bufferView": 2,
      "byteOffset": 7800,
      "componentType": 5126,
      "count": 208,
      "max": [
        0.9972283244132996,
        0.8241214156150818,
        0.9707242250442505
      ],
      "min": [
        -0.9972283244132996,
        -0.8248302936553955,
        -0.9707242250442505
      ],
      "type": "VEC3"
    },
    {
      "bufferView": 1,
      "componentType": 5126,
      "count": 208,
      "max": [
        0.986990213394165,
        1.7196470499038696
      ],
      "min": [
        0.0476190485060215,
        0.056299030780792236
      ],
      "type": "VEC2"
    },
    {
      "bufferView": 0,
      "byteOffset": 5200,
      "componentType": 5125,
      "count": 924,
      "type": "SCALAR"
    }
  ],
  "asset": {
    "extras": {
      "author": "millernathan472 (https://sketchfab.com/millernathan472)",
      "license": "CC-BY-4.0 (http://creativecommons.org/licenses/by/4.0/)",
      "source": "https://sketchfab.com/3d-models/life-raft-9c5d8ac17cec443ca199c2501a9ff679",
      "title": "Life raft"
    },
    "generator": "Sketchfab-15.34.0",
    "version": "2.0"
  },
  "bufferViews": [
    {
      "buffer": 0,
      "byteLength": 8896,
      "name": "floatBufferViews",
      "target": 34963
    },
    {
      "buffer": 0,
      "byteLength": 1664,
      "byteOffset": 8896,
      "byteStride": 8,
      "name": "floatBufferViews",
      "target": 34962
    },
    {
      "buffer": 0,
      "byteLength": 10296,
      "byteOffset": 10560,
      "byteStride": 12,
      "name": "floatBufferViews",
      "target": 34962
    }
  ],
  "buffers": [
    {
      "byteLength": 20856,
      "uri": "scene.bin"
    }
  ],
  "extensionsRequired": [
    "KHR_materials_pbrSpecularGlossiness"
  ],
  "extensionsUsed": [
    "KHR_materials_pbrSpecularGlossiness"
  ],
  "images": [
    {
      "uri": "textures/life_raft_diffuse.png"
    }
  ],
  "materials": [
    {
      "extensions": {
        "KHR_materials_pbrSpecularGlossiness": {
          "diffuseFactor": [
            1.0,
            1.0,
            1.0,
            1.0
          ],
          "glossinessFactor": 0.4,
          "specularFactor": [
            0.0,
            0.0,
            0.0
          ]
        }
      },
      "name": "edge_color000255"
    },
    {
      "extensions": {
        "KHR_materials_pbrSpecularGlossiness": {
          "diffuseFactor": [
            1.0,
            1.0,
            1.0,
            1.0
          ],
          "glossinessFactor": 0.4,
          "specularFactor": [
            0.0,
            0.0,
            0.0
          ]
        }
      },
      "name": "material"
    },
    {
      "extensions": {
        "KHR_materials_pbrSpecularGlossiness": {
          "diffuseFactor": [
            1.0,
            1.0,
            1.0,
            1.0
          ],
          "diffuseTexture": {
            "index": 0
          },
          "glossinessFactor": 0.4,
          "specularFactor": [
            0.19089253187613844,
            0.19089253187613844,
            0.19089253187613844
          ]
        }
      },
      "name": "life_raft"
    }
  ],
  "meshes": [
    {
      "name": "Material4",
      "primitives": [
        {
          "attributes": {
            "POSITION": 0
          },
          "indices": 1,
          "material": 0,
          "mode": 1
        }
      ]
    },
    {
      "name": "Material2",
      "primitives": [
        {
          "attributes": {
            "NORMAL": 3,
            "POSITION": 2
          },
          "indices": 4,
          "material": 1,
          "mode": 4
        }
      ]
    },
    {
      "name": "Material2",
      "primitives": [
        {
          "attributes": {
            "NORMAL": 6,
            "POSITION": 5,
            "TEXCOORD_0": 7
          },
          "indices": 8,
          "material": 2,
          "mode": 4
        }
      ]
    }
  ],
  "nodes": [
    {
      "children": [
        1
      ],
      "matrix": [
        0.11613635718822479,
        0.9932225346565247,
        -0.0046194014139471235,
        0.0,
        -0.9554938077926636,
        0.11045250296592718,
        -0.2735539972782135,
        0.0,
        -0.27118977904319763,
        0.03618337213993051,
        0.9618455767631531,
        0.0,
        0.0,
        0.0,
        0.0,
        1.0
      ],
      "name": "Sketchfab_model"
    },
    {
      "children": [
        2,
        3,
        4,
        5
      ],
      "name": "Collada visual scene group"
    },
    {
      "mesh": 0,
      "name": "Material4"
    },
    {
      "mesh": 1,
      "name": "Material2"
    },
    {
      "mesh": 2,
      "name": "Material2"
    },
    {
      "children": [
        6
      ],
      "name": "SketchUp"
    },
    {
      "children": [
        7
      ],
      "matrix": [
        0.07294029,
        0.9973363,
        6.938894e-18,
        0.0,
        -0.367874,
        0.0269045,
        0.9294863,
        0.0,
        0.9270105,
        -0.067797,
        0.3688565,
        0.0,
        480.7314,
        92.61681,
        201.8322,
        1.0
      ],
      "name": "skp_camera_Last_Saved_SketchUp_View"
    },
    {
      "name": "ID1"
    }
  ],
  "samplers": [
    {
      "magFilter": 9729,
      "minFilter": 9987,
      "wrapS": 10497,
      "wrapT": 10497
    }
  ],
  "scene": 0,
  "scenes": [
    {
      "name": "Sketchfab_Scene",
      "nodes": [
        0
      ]
    }
  ],
  "textures": [
    {
      "sampler": 0,
      "source": 0
    }
  ]
}
