{
  "accessors": [
    {
      "bufferView": 2,
      "componentType": 5126,
      "count": 5112,
      "max": [
        1.0,
        0.11969199776649475,
        0.5245569944381714
      ],
      "min": [
        -1.0,
        -0.40916600823402405,
        -0.5245569944381714
      ],
      "type": "VEC3"
    },
    {
      "bufferView": 2,
      "byteOffset": 61344,
      "componentType": 5126,
      "count": 5112,
      "max": [
        0.9989637732505798,
        0.9999989867210388,
        0.999792218208313
      ],
      "min": [
        -0.9996809959411621,
        -0.9999998807907104,
        -0.9998310208320618
      ],
      "type": "VEC3"
    },
    {
      "bufferView": 3,
      "componentType": 5126,
      "count": 5112,
      "max": [
        0.9999358057975769,
        0.9618843793869019,
        0.9994948506355286,
        1.0
      ],
      "min": [
        -0.9675906300544739,
        -0.9668931365013123,
        -0.9320656657218933,
        1.0
      ],
      "type": "VEC4"
    },
    {
      "bufferView": 1,
      "componentType": 5126,
      "count": 5112,
      "max": [
        0.9999989867210388,
        0.6758059859275818
      ],
      "min": [
        2.682209867543861e-07,
        2.3841900542720396e-07
      ],
      "type": "VEC2"
    },
    {
      "bufferView": 0,
      "componentType": 5125,
      "count": 29184,
      "type": "SCALAR"
    }
  ],
  "asset": {
    "extras": {
      "author": "Duznot (https://sketchfab.com/duz_vr)",
      "license": "CC-BY-4.0 (http://creativecommons.org/licenses/by/4.0/)",
      "source": "https://sketchfab.com/3d-models/inflatable-raft-5e16fb6d27a24a5a83ef0b6cfe7cdd54",
      "title": "Inflatable Raft"
    },
    "generator": "Sketchfab-12.68.0",
    "version": "2.0"
  },
  "bufferViews": [
    {
      "buffer": 0,
      "byteLength": 116736,
      "name": "floatBufferViews",
      "target": 34963
    },
    {
      "buffer": 0,
      "byteLength": 40896,
      "byteOffset": 116736,
      "byteStride": 8,
      "name": "floatBufferViews",
      "target": 34962
    },
    {
      "buffer": 0,
      "byteLength": 122688,
      "byteOffset": 157632,
      "byteStride": 12,
      "name": "floatBufferViews",
      "target": 34962
    },
    {
      "buffer": 0,
      "byteLength": 81792,
      "byteOffset": 280320,
      "byteStride": 16,
      "name": "floatBufferViews",
      "target": 34962
    }
  ],
  "buffers": [
    {
      "byteLength": 362112,
      "uri": "scene.bin"
    }
  ],
  "images": [
    {
      "uri": "textures/Material_baseColor.jpeg"
    },
    {
      "uri": "textures/Material_metallicRoughness.png"
    },
    {
      "uri": "textures/Material_normal.png"
    }
  ],
  "materials": [
    {
      "doubleSided": true,
      "name": "Material",
      "normalTexture": {
        "index": 2
      },
      "occlusionTexture": {
        "index": 1
      },
      "pbrMetallicRoughness": {
        "baseColorTexture": {
          "index": 0
        },
        "metallicRoughnessTexture": {
          "index": 1
        }
      }
    }
  ],
  "meshes": [
    {
      "name": "defaultMaterial",
      "primitives": [
        {
          "attributes": {
            "NORMAL": 1,
            "POSITION": 0,
            "TANGENT": 2,
            "TEXCOORD_0": 3
          },
          "indices": 4,
          "material": 0,
          "mode": 4
        }
      ]
    }
  ],
  "nodes": [
    {
      "children": [
        1
      ],
      "matrix": [
        0.9033286571502686,
        0.2700964510440827,
        -0.3332345783710479,
        0.0,
        -0.3895646929740906,
        0.19140157103538533,
        -0.900891125202179,
        0.0,
        -0.17954586446285248,
        0.9436171650886535,
        0.2781185507774355,
        0.0,
        -0.025986837223172188,
        -0.008160761557519445,
        0.040254078805446625,
        1.0
      ],
      "name": "Sketchfab_model"
    },
    {
      "children": [
        2
      ],
      "matrix": [
        1.0,
        0.0,
        0.0,
        0.0,
        0.0,
        -4.371139006309477e-08,
        0.999999999999999,
        0.0,
        0.0,
        -0.999999999999999,
        -4.371139006309477e-08,
        0.0,
        0.0,
        0.0,
        0.0,
        1.0
      ],
      "name": "Collada visual scene group"
    },
    {
      "children": [
        3
      ],
      "name": "Cube"
    },
    {
      "mesh": 0,
      "name": "defaultMaterial"
    }
  ],
  "samplers": [
    {
      "magFilter": 9729,
      "minFilter": 9987,
      "wrapS": 10497,
      "wrapT": 10497
    }
  ],
  "scene": 0,
  "scenes": [
    {
      "name": "Sketchfab_Scene",
      "nodes": [
        0
      ]
    }
  ],
  "textures": [
    {
      "sampler": 0,
      "source": 0
    },
    {
      "sampler": 0,
      "source": 1
    },
    {
      "sampler": 0,
      "source": 2
    }
  ]
}
